<svg xmlns="http://www.w3.org/2000/svg" xmlns:xlink="http://www.w3.org/1999/xlink" xmlns:lucid="lucid" width="1871" height="1665"><g transform="translate(0 2518)" lucid:page-tab-id="0_0"><path d="M0-2517.67h1870.87V64H0z" fill="#21252c"/><path d="M437.22-2474a6 6 0 0 1 6-6h984.43a6 6 0 0 1 6 6v147.33a6 6 0 0 1-6 6H443.22a6 6 0 0 1-6-6z" stroke="#000" stroke-opacity="0" stroke-width="3" fill="#fff" fill-opacity="0"/><use xlink:href="#a" transform="matrix(1,0,0,1,442.2176637821449,-2475) translate(51.586419753086545 58.993055555555536)"/><use xlink:href="#b" transform="matrix(1,0,0,1,442.2176637821449,-2475) translate(308.0061728395062 58.993055555555536)"/><use xlink:href="#c" transform="matrix(1,0,0,1,442.2176637821449,-2475) translate(573.0679012345679 58.993055555555536)"/><use xlink:href="#d" transform="matrix(1,0,0,1,442.2176637821449,-2475) translate(600.1049382716049 58.993055555555536)"/><use xlink:href="#e" transform="matrix(1,0,0,1,442.2176637821449,-2475) translate(823.685185185185 58.993055555555536)"/><use xlink:href="#f" transform="matrix(1,0,0,1,442.2176637821449,-2475) translate(866.4012345679012 58.993055555555536)"/><use xlink:href="#g" transform="matrix(1,0,0,1,442.2176637821449,-2475) translate(903.4382716049381 58.993055555555536)"/><use xlink:href="#h" transform="matrix(1,0,0,1,442.2176637821449,-2475) translate(211.37654320987667 110.54861111111106)"/><use xlink:href="#i" transform="matrix(1,0,0,1,442.2176637821449,-2475) translate(457.9938271604939 110.54861111111106)"/><use xlink:href="#j" transform="matrix(1,0,0,1,442.2176637821449,-2475) translate(517.1543209876543 110.54861111111106)"/><path d="M983.43-2280c17.68 0 32 17.9 32 40s-14.32 40-32 40h-96c-17.67 0-32-17.9-32-40s14.33-40 32-40z" stroke="#a9a9a9" stroke-width="2" fill="#f5fbff"/><use xlink:href="#k" transform="matrix(1,0,0,1,860.4330708661416,-2275) translate(47.55 38.4625)"/><path d="M855.43-2114a6 6 0 0 1 6-6h148a6 6 0 0 1 6 6v68a6 6 0 0 1-6 6h-148a6 6 0 0 1-6-6z" stroke="#a9a9a9" stroke-width="2" fill="#f5fbff"/><use xlink:href="#l" transform="matrix(1,0,0,1,867.4330708661416,-2108) translate(48.25 31.9)"/><use xlink:href="#m" transform="matrix(1,0,0,1,867.4330708661416,-2108) translate(62.25 31.9)"/><use xlink:href="#n" transform="matrix(1,0,0,1,867.4330708661416,-2108) translate(77.75 31.9)"/><path d="M935.43-2197.5v55.92" stroke="#bdf139" stroke-width="3" fill="none"/><path d="M936.93-2197.46h-3v-1.54h3z" stroke="#bdf139" stroke-width=".05" fill="#bdf139"/><path d="M935.43-2125.82l-4.63-14.26h9.27z" stroke="#bdf139" stroke-width="3" fill="#bdf139"/><path d="M935.43-2037.54v35.92" stroke="#bdf139" stroke-width="3" fill="none"/><path d="M936.93-2037.5h-3v-1.54h3z" stroke="#bdf139" stroke-width=".05" fill="#bdf139"/><path d="M935.43-1985.85l-4.63-14.27h9.27z" stroke="#bdf139" stroke-width="3" fill="#bdf139"/><path d="M975.43-1940c0 22.1-17.9 40-40 40s-40-17.9-40-40 17.9-40 40-40 40 17.9 40 40z" stroke="#a9a9a9" stroke-width="2" fill="#f5fbff"/><use xlink:href="#o" transform="matrix(1,0,0,1,900.4330708661416,-1975) translate(29 38.4625)"/><path d="M930.63-1836.4a8 8 0 0 1 9.6 0l70.4 52.8a4.5 4.5 0 0 1 0 7.2l-70.4 52.8a8 8 0 0 1-9.6 0l-70.4-52.8a4.5 4.5 0 0 1 0-7.2z" stroke="#a9a9a9" stroke-width="2" fill="#f5fbff"/><use xlink:href="#l" transform="matrix(1,0,0,1,860.4330708661416,-1835) translate(50.255 59.0875)"/><use xlink:href="#p" transform="matrix(1,0,0,1,860.4330708661416,-1835) translate(64.255 59.0875)"/><use xlink:href="#q" transform="matrix(1,0,0,1,860.4330708661416,-1835) translate(79.755 59.0875)"/><path d="M935.43-1897.5v37.88" stroke="#bdf139" stroke-width="3" fill="none"/><path d="M935.42-1899l1.5-.05v1.6h-3v-1.64z" stroke="#bdf139" stroke-width=".05" fill="#bdf139"/><path d="M935.43-1843.86l-4.63-14.26h9.27z" stroke="#bdf139" stroke-width="3" fill="#bdf139"/><path d="M1121.43-1784.88l-.3 1.2-.44 1.1-.63 1-.76.9-.9.75-1 .62-1.08.44-1.15.27-1.1.1h-99.13v-3h99l.76-.06.7-.16.64-.27.6-.36.54-.46.46-.54.37-.6.28-.65.15-.64.04-294h3zm193.74-496.53l1.15.26 1.1.45 1 .63.9.76.75.9.62 1 .44 1.08.3 1.2.06 14.5h-3l-.07-14.14-.15-.63-.27-.64-.36-.6-.46-.54-.54-.46-.6-.37-.65-.28-.7-.16-.76-.06-188.7.07-.63.15-.64.27-.6.36-.54.46-.46.54-.37.6-.28.65-.16.7-.06.76-.02 159.75h-3l.02-159.86.1-1.1.26-1.16.45-1.1.63-1 .76-.9.9-.75 1-.62 1.08-.44 1.2-.3 189.18-.06z" stroke="#bdf139" stroke-width=".05" fill="#bdf139"/><path d="M1014.98-1778.5h-1.78l.14-.5.1-1-.1-1-.14-.5h1.78z" fill="#bdf139"/><path d="M1015-1778.47h-1.83l.15-.52.1-1-.1-1-.15-.53h1.83zm-1.76-3l.13.45.1 1.02-.1 1.02-.13.45h1.7v-2.94z" stroke="#bdf139" stroke-width=".05" fill="#bdf139"/><path d="M1320-2244.85l-4.64-14.27h9.28z" fill="#bdf139"/><path d="M1320-2240l-6.7-20.62h13.4zm-2.57-17.62l2.57 7.9 2.57-7.9z" stroke="#bdf139" stroke-width=".05" fill="#bdf139"/><use xlink:href="#r" transform="matrix(1,0,0,1,1095.012962962963,-2114.1853385668687) translate(0 23.288888888888884)"/><path d="M1240-2233.04a6 6 0 0 1 6-6h148a6 6 0 0 1 6 6v68a6 6 0 0 1-6 6h-148a6 6 0 0 1-6-6z" stroke="#a9a9a9" stroke-width="2" fill="#f5fbff"/><use xlink:href="#s" transform="matrix(1,0,0,1,1252,-2227.0367443467676) translate(50.775 31.9)"/><use xlink:href="#m" transform="matrix(1,0,0,1,1252,-2227.0367443467676) translate(59.724999999999994 31.9)"/><use xlink:href="#n" transform="matrix(1,0,0,1,1252,-2227.0367443467676) translate(75.225 31.9)"/><path d="M1315.2-1950.85a8 8 0 0 1 9.6 0l70.4 52.8a4.5 4.5 0 0 1 0 7.2l-70.4 52.8a8 8 0 0 1-9.6 0l-70.4-52.8a4.5 4.5 0 0 1 0-7.2z" stroke="#a9a9a9" stroke-width="2" fill="#f5fbff"/><use xlink:href="#s" transform="matrix(1,0,0,1,1245,-1949.4488347984861) translate(52.779999999999994 59.0875)"/><use xlink:href="#p" transform="matrix(1,0,0,1,1245,-1949.4488347984861) translate(61.73 59.0875)"/><use xlink:href="#q" transform="matrix(1,0,0,1,1245,-1949.4488347984861) translate(77.22999999999999 59.0875)"/><path d="M1255.9-1749.1a9.77 9.77 0 0 1 8.73-5.35h137.2c11.3 0 20.45 36.1 20.45 80.6 0 44.52-9.16 80.6-20.45 80.6h-137.2a9.77 9.77 0 0 1-8.72-5.35l-35.47-69.9a11.82 11.82 0 0 1 0-10.7z" stroke="#a9a9a9" stroke-width="2" fill="#f5fbff"/><use xlink:href="#t" transform="matrix(1,0,0,1,1222.7165354330705,-1749.4488347984861) translate(33.01 14.4)"/><use xlink:href="#u" transform="matrix(1,0,0,1,1222.7165354330705,-1749.4488347984861) translate(68.36 14.4)"/><use xlink:href="#v" transform="matrix(1,0,0,1,1222.7165354330705,-1749.4488347984861) translate(102.36 14.4)"/><use xlink:href="#w" transform="matrix(1,0,0,1,1222.7165354330705,-1749.4488347984861) translate(32 36)"/><use xlink:href="#x" transform="matrix(1,0,0,1,1222.7165354330705,-1749.4488347984861) translate(47 36)"/><use xlink:href="#y" transform="matrix(1,0,0,1,1222.7165354330705,-1749.4488347984861) translate(57.95 36)"/><use xlink:href="#z" transform="matrix(1,0,0,1,1222.7165354330705,-1749.4488347984861) translate(32 57.6)"/><use xlink:href="#x" transform="matrix(1,0,0,1,1222.7165354330705,-1749.4488347984861) translate(47 57.6)"/><use xlink:href="#A" transform="matrix(1,0,0,1,1222.7165354330705,-1749.4488347984861) translate(57.95 57.6)"/><use xlink:href="#B" transform="matrix(1,0,0,1,1222.7165354330705,-1749.4488347984861) translate(32 79.20000000000002)"/><use xlink:href="#x" transform="matrix(1,0,0,1,1222.7165354330705,-1749.4488347984861) translate(47 79.20000000000002)"/><use xlink:href="#C" transform="matrix(1,0,0,1,1222.7165354330705,-1749.4488347984861) translate(57.95 79.20000000000002)"/><use xlink:href="#D" transform="matrix(1,0,0,1,1222.7165354330705,-1749.4488347984861) translate(32 100.80000000000001)"/><use xlink:href="#x" transform="matrix(1,0,0,1,1222.7165354330705,-1749.4488347984861) translate(47 100.80000000000001)"/><use xlink:href="#E" transform="matrix(1,0,0,1,1222.7165354330705,-1749.4488347984861) translate(57.95 100.80000000000001)"/><use xlink:href="#F" transform="matrix(1,0,0,1,1222.7165354330705,-1749.4488347984861) translate(32 122.4)"/><use xlink:href="#G" transform="matrix(1,0,0,1,1222.7165354330705,-1749.4488347984861) translate(82.85 122.4)"/><use xlink:href="#H" transform="matrix(1,0,0,1,1222.7165354330705,-1749.4488347984861) translate(97.85 122.4)"/><use xlink:href="#I" transform="matrix(1,0,0,1,1222.7165354330705,-1749.4488347984861) translate(127.8 122.4)"/><use xlink:href="#J" transform="matrix(1,0,0,1,1222.7165354330705,-1749.4488347984861) translate(152.8 122.4)"/><use xlink:href="#K" transform="matrix(1,0,0,1,1222.7165354330705,-1749.4488347984861) translate(33.01 144)"/><path d="M1321.5-1776.03h-3v-8.6h3zm0-30.2h-3v-27.72h3z" stroke="#bdf139" stroke-width=".05" fill="#bdf139"/><path d="M1318.84-1835.52l1.16.07 1.16-.07.34-.07v1.7h-3v-1.7z" fill="#bdf139"/><path d="M1318.85-1835.55l1.15.08 1.15-.08.38-.07v1.74h-3.06v-1.74zm-.32 1.62h2.94v-1.63l-.3.06-1.17.08-1.16-.08-.3-.06z" stroke="#bdf139" stroke-width=".05" fill="#bdf139"/><path d="M1320-1760.27l-4.64-14.26h9.28z" fill="#bdf139"/><path d="M1320-1755.4l-6.7-20.63h13.4zm-2.57-17.63l2.57 7.9 2.57-7.9z" stroke="#bdf139" stroke-width=".05" fill="#bdf139"/><use xlink:href="#L" transform="matrix(1,0,0,1,1304.55,-1806.230280189865) translate(0 14.4)"/><path d="M1240-1508.53a6.8 6.8 0 0 1 5.95-6.74l148.1-18.44a5.3 5.3 0 0 1 5.95 5.25v108a6 6 0 0 1-6 6h-148a6 6 0 0 1-6-6z" stroke="#a9a9a9" stroke-width="2" fill="#f5fbff"/><use xlink:href="#M" transform="matrix(1,0,0,1,1244.9999999999998,-1509.4488347984861) translate(20.574999999999996 48.15)"/><use xlink:href="#N" transform="matrix(1,0,0,1,1244.9999999999998,-1509.4488347984861) translate(86.475 48.15)"/><use xlink:href="#O" transform="matrix(1,0,0,1,1244.9999999999998,-1509.4488347984861) translate(100.475 48.15)"/><use xlink:href="#P" transform="matrix(1,0,0,1,1244.9999999999998,-1509.4488347984861) translate(115.475 48.15)"/><use xlink:href="#Q" transform="matrix(1,0,0,1,1244.9999999999998,-1509.4488347984861) translate(124.42500000000001 48.15)"/><path d="M1320.34-1590.75v44.63" stroke="#bdf139" stroke-width="3" fill="none"/><path d="M1321.84-1590.7h-3v-1.55h3z" stroke="#bdf139" stroke-width=".05" fill="#bdf139"/><path d="M1320.34-1530.36l-4.63-14.26h9.28z" stroke="#bdf139" stroke-width="3" fill="#bdf139"/><path d="M1311.56-1371.62a11.23 11.23 0 0 1 10.58 0l101.7 54.34a3.2 3.2 0 0 1 0 5.66l-101.7 54.34a11.23 11.23 0 0 1-10.58 0l-101.7-54.34a3.2 3.2 0 0 1 0-5.66z" stroke="#a9a9a9" stroke-width="2" fill="#f5fbff"/><use xlink:href="#M" transform="matrix(1,0,0,1,1209.5669291338584,-1369.4488347984861) translate(37.830000000000005 48.775)"/><use xlink:href="#N" transform="matrix(1,0,0,1,1209.5669291338584,-1369.4488347984861) translate(103.73 48.775)"/><use xlink:href="#O" transform="matrix(1,0,0,1,1209.5669291338584,-1369.4488347984861) translate(117.73 48.775)"/><use xlink:href="#P" transform="matrix(1,0,0,1,1209.5669291338584,-1369.4488347984861) translate(132.73000000000002 48.775)"/><use xlink:href="#R" transform="matrix(1,0,0,1,1209.5669291338584,-1369.4488347984861) translate(141.68 48.775)"/><use xlink:href="#p" transform="matrix(1,0,0,1,1209.5669291338584,-1369.4488347984861) translate(151.68 48.775)"/><use xlink:href="#S" transform="matrix(1,0,0,1,1209.5669291338584,-1369.4488347984861) translate(167.18 48.775)"/><use xlink:href="#T" transform="matrix(1,0,0,1,1209.5669291338584,-1369.4488347984861) translate(84.255 70.375)"/><use xlink:href="#U" transform="matrix(1,0,0,1,1209.5669291338584,-1369.4488347984861) translate(109.255 70.375)"/><path d="M1320-1412v17.13a1.15 1.15 0 0 1-1.15 1.15h-1.15" stroke="#bdf139" stroke-width="3" fill="none"/><path d="M1321.5-1411.95h-3v-1.53h3z" stroke="#bdf139" stroke-width=".05" fill="#bdf139"/><path d="M1317.06-1378.8l-4.02-14.45 9.26.4z" stroke="#bdf139" stroke-width="3" fill="#bdf139"/><path d="M1573.74-1369.15a10 10 0 0 1 8.83-5.3h106c8.83 0 16 26.86 16 60s-7.17 60-16 60h-106a10 10 0 0 1-8.83-5.3l-26.35-49.4a11.25 11.25 0 0 1 0-10.6z" stroke="#a9a9a9" stroke-width="2" fill="#f5fbff"/><use xlink:href="#V" transform="matrix(1,0,0,1,1549.5669291338584,-1369.4488347984861) translate(39.05499999999999 59.0875)"/><path d="M1470.35-1312.95h-42.3v-3h42.3zm54.1 0h-23.2v-3h23.2z" stroke="#bdf139" stroke-width=".05" fill="#bdf139"/><path d="M1428.08-1312.95h-1.84l.2-.6.1-.9-.1-.9-.2-.6h1.84z" fill="#bdf139"/><path d="M1428.1-1312.92h-1.9l.22-.63.1-.9-.1-.9-.2-.62h1.9zm-1.82-3l.2.56.1.9-.1.92-.2.57h1.78v-2.95z" stroke="#bdf139" stroke-width=".05" fill="#bdf139"/><path d="M1540.2-1314.45l-14.25 4.64v-9.28z" fill="#bdf139"/><path d="M1545.07-1314.45l-20.62 6.7v-13.4zm-17.62 2.57l7.9-2.57-7.9-2.57z" stroke="#bdf139" stroke-width=".05" fill="#bdf139"/><use xlink:href="#L" transform="matrix(1,0,0,1,1470.3543336232485,-1325.248834798486) translate(0 14.4)"/><path d="M1544.57-1188.45a6 6 0 0 1 6-6h148a6 6 0 0 1 6 6v108a6 6 0 0 1-6 6h-148a6 6 0 0 1-6-6z" stroke="#a9a9a9" stroke-width="2" fill="#f5fbff"/><use xlink:href="#W" transform="matrix(1,0,0,1,1556.5669291338584,-1182.4488347984861) translate(60.075 50.4)"/><path d="M1422.28-1188.45a6 6 0 0 1 6-6h148a6 6 0 0 1 6 6v108a6 6 0 0 1-6 6h-148a6 6 0 0 1-6-6z" fill="#fff" fill-opacity="0"/><path d="M1438.28-1194.45h-10a6 6 0 0 0-6 6v108a6 6 0 0 0 6 6h10" stroke="#a9a9a9" stroke-width="2" fill="none"/><use xlink:href="#X" transform="matrix(1,0,0,1,1437.283464566929,-1189.4488347984861) translate(0 47.8)"/><use xlink:href="#Y" transform="matrix(1,0,0,1,1437.283464566929,-1189.4488347984861) translate(53.900000000000006 47.8)"/><use xlink:href="#Z" transform="matrix(1,0,0,1,1437.283464566929,-1189.4488347984861) translate(0 69.4)"/><path d="M1624.98-1251.95v35.92" stroke="#bdf139" stroke-width="3" fill="none"/><path d="M1626.48-1251.9h-3v-1.55h3z" stroke="#bdf139" stroke-width=".05" fill="#bdf139"/><path d="M1624.98-1200.27l-4.64-14.26h9.27z" stroke="#bdf139" stroke-width="3" fill="#bdf139"/><path d="M1356.85-975.45c0 22.1-17.9 40-40 40s-40-17.9-40-40 17.9-40 40-40 40 17.9 40 40z" stroke="#a9a9a9" stroke-width="2" fill="#f5fbff"/><use xlink:href="#aa" transform="matrix(1,0,0,1,1281.8503937007877,-1010.4467811080729) translate(29 38.4625)"/><path d="M1318.35-1037.07h-3v-87.83h3zm0-109.43h-3v-106.95h3z" stroke="#bdf139" stroke-width=".05" fill="#bdf139"/><path d="M1315.65-1255l1.2.05 1.2-.06.3-.05v1.64h-3v-1.65z" fill="#bdf139"/><path d="M1315.65-1255.03l1.2.05 1.2-.05.33-.05v1.7h-3.05v-1.7zm-.27 1.6h2.95v-1.6l-.28.05-1.2.05-1.2-.05-.27-.04z" stroke="#bdf139" stroke-width=".05" fill="#bdf139"/><path d="M1316.85-1021.3l-4.63-14.27h9.27z" fill="#bdf139"/><path d="M1316.85-1016.45l-6.7-20.62h13.4zm-2.57-17.62l2.57 7.9 2.57-7.9z" stroke="#bdf139" stroke-width=".05" fill="#bdf139"/><use xlink:href="#ab" transform="matrix(1,0,0,1,1297.3753936633561,-1146.498798620592) translate(0 14.4)"/><path d="M1624.57-1072v90.55a6 6 0 0 1-6 6h-240.1" stroke="#bdf139" stroke-width="3" fill="none"/><path d="M1626.07-1071.95h-3v-1.53h3z" stroke="#bdf139" stroke-width=".05" fill="#bdf139"/><path d="M1362.7-975.45l14.27-4.63v9.27z" stroke="#bdf139" stroke-width="3" fill="#bdf139"/><path d="M1360-2056.74c0 22.1-17.9 40-40 40s-40-17.9-40-40 17.9-40 40-40 40 17.9 40 40z" stroke="#a9a9a9" stroke-width="2" fill="#f5fbff"/><use xlink:href="#aa" transform="matrix(1,0,0,1,1285,-2091.742789572627) translate(29 38.4625)"/><path d="M1320-2156.57v38.2" stroke="#bdf139" stroke-width="3" fill="none"/><path d="M1321.5-2156.54h-3v-1.53h3z" stroke="#bdf139" stroke-width=".05" fill="#bdf139"/><path d="M1320-2102.6l-4.64-14.26h9.28z" stroke="#bdf139" stroke-width="3" fill="#bdf139"/><path d="M1320-2014.24v40.17" stroke="#bdf139" stroke-width="3" fill="none"/><path d="M1320-2015.74l1.5-.06v1.6h-3v-1.63z" stroke="#bdf139" stroke-width=".05" fill="#bdf139"/><path d="M1320-1958.3l-4.64-14.27h9.28z" stroke="#bdf139" stroke-width="3" fill="#bdf139"/><path d="M1664.57-1894.45c0 22.1-17.9 40-40 40s-40-17.9-40-40 17.9-40 40-40 40 17.9 40 40z" stroke="#a9a9a9" stroke-width="2" fill="#f5fbff"/><use xlink:href="#o" transform="matrix(1,0,0,1,1589.5669291338584,-1929.4488347984861) translate(29 38.4625)"/><path d="M1471.3-1892.95h-71.8v-3h71.8zm91.65 0h-52.7v-3h52.7z" stroke="#bdf139" stroke-width=".05" fill="#bdf139"/><path d="M1399.54-1892.95h-1.77l.14-.48.1-1.02-.1-1-.13-.5h1.77z" fill="#bdf139"/><path d="M1399.57-1892.92h-1.83l.15-.52.08-1-.1-1.02-.14-.5h1.83zm-1.77-3l.13.45.1 1.02-.1 1.02-.13.46h1.72v-2.95z" stroke="#bdf139" stroke-width=".05" fill="#bdf139"/><path d="M1578.7-1894.45l-14.25 4.64v-9.28z" fill="#bdf139"/><path d="M1583.57-1894.45l-20.62 6.7v-13.4zm-17.62 2.57l7.9-2.57-7.9-2.57z" stroke="#bdf139" stroke-width=".05" fill="#bdf139"/><use xlink:href="#ab" transform="matrix(1,0,0,1,1471.3102891742165,-1905.248834798486) translate(0 14.4)"/><path d="M506.56-2233.04a6 6 0 0 1 6-6h148a6 6 0 0 1 6 6v68a6 6 0 0 1-6 6h-148a6 6 0 0 1-6-6z" stroke="#a9a9a9" stroke-width="2" fill="#f5fbff"/><use xlink:href="#s" transform="matrix(1,0,0,1,518.5626561995957,-2227.0367443467676) translate(50.775 31.9)"/><use xlink:href="#m" transform="matrix(1,0,0,1,518.5626561995957,-2227.0367443467676) translate(59.724999999999994 31.9)"/><use xlink:href="#n" transform="matrix(1,0,0,1,518.5626561995957,-2227.0367443467676) translate(75.225 31.9)"/><path d="M581.76-1976.4a8 8 0 0 1 9.6 0l70.4 52.8a4.5 4.5 0 0 1 0 7.2l-70.4 52.8a8 8 0 0 1-9.6 0l-70.4-52.8a4.5 4.5 0 0 1 0-7.2z" stroke="#a9a9a9" stroke-width="2" fill="#f5fbff"/><use xlink:href="#s" transform="matrix(1,0,0,1,511.5626561995957,-1975) translate(52.779999999999994 59.0875)"/><use xlink:href="#p" transform="matrix(1,0,0,1,511.5626561995957,-1975) translate(61.73 59.0875)"/><use xlink:href="#q" transform="matrix(1,0,0,1,511.5626561995957,-1975) translate(77.22999999999999 59.0875)"/><path d="M626.56-2069.52c0 22.1-17.9 40-40 40s-40-17.9-40-40 17.9-40 40-40 40 17.9 40 40z" stroke="#a9a9a9" stroke-width="2" fill="#f5fbff"/><use xlink:href="#ac" transform="matrix(1,0,0,1,551.5626561995957,-2104.518372173384) translate(28.525 38.4625)"/><path d="M586.56-2156.57v25.43" stroke="#bdf139" stroke-width="3" fill="none"/><path d="M588.06-2156.54h-3v-1.53h3z" stroke="#bdf139" stroke-width=".05" fill="#bdf139"/><path d="M586.56-2115.37l-4.63-14.27h9.27z" stroke="#bdf139" stroke-width="3" fill="#bdf139"/><path d="M586.56-2027.02v27.4" stroke="#bdf139" stroke-width="3" fill="none"/><path d="M586.55-2028.52l1.5-.05v1.6h-3v-1.64z" stroke="#bdf139" stroke-width=".05" fill="#bdf139"/><path d="M586.56-1983.86l-4.63-14.26h9.27z" stroke="#bdf139" stroke-width="3" fill="#bdf139"/><path d="M771.57-1785.24l.15.63.27.64.36.6.46.54.54.46.6.37.65.28.7.16.76.06h79.87v3h-80l-1.1-.1-1.15-.26-1.1-.45-1-.63-.9-.76-.75-.9-.62-1-.44-1.08-.3-1.2-.03-295.66h3zm-6.45-496.2l1.2.3 1.1.45 1 .63.9.76.75.9.62 1 .44 1.08.27 1.15.1 1.1.02 158.6h-3l-.02-158.47-.06-.76-.16-.7-.27-.64-.36-.6-.46-.54-.54-.46-.6-.37-.65-.28-.64-.15-172.14-.07-.76.06-.7.16-.64.27-.6.36-.54.46-.45.54-.37.6-.27.65-.16.64-.08 14.15-3-.03.08-14.5.3-1.2.44-1.08.6-1 .78-.9.9-.77 1-.62 1.08-.44 1.15-.27 1.1-.1z" stroke="#bdf139" stroke-width=".05" fill="#bdf139"/><path d="M857.52-1781l-.1 1 .1 1 .14.5h-1.77v-3h1.76z" fill="#bdf139"/><path d="M857.55-1781l-.1 1 .1 1 .14.53h-1.83v-3.06h1.82zm-1.63-.47v2.94h1.7l-.12-.45-.1-1.02.1-1.02.13-.45z" stroke="#bdf139" stroke-width=".05" fill="#bdf139"/><path d="M586.56-2244.85l-4.63-14.27h9.27z" fill="#bdf139"/><path d="M586.56-2240l-6.7-20.62h13.4zm-2.57-17.62l2.56 7.9 2.57-7.9z" stroke="#bdf139" stroke-width=".05" fill="#bdf139"/><use xlink:href="#ad" transform="matrix(1,0,0,1,738.5033950617284,-2115.4709396009293) translate(0 23.288888888888884)"/><path d="M328-1960c17.67 0 32 17.9 32 40s-14.33 40-32 40h-96c-17.67 0-32-17.9-32-40s14.33-40 32-40z" stroke="#a9a9a9" stroke-width="2" fill="#f5fbff"/><g><use xlink:href="#ae" transform="matrix(1,0,0,1,205,-1955) translate(59.55 38.4625)"/></g><path d="M506.56-1794a6 6 0 0 1 6-6h148a6 6 0 0 1 6 6v68a6 6 0 0 1-6 6h-148a6 6 0 0 1-6-6z" stroke="#a9a9a9" stroke-width="2" fill="#f5fbff"/><g><use xlink:href="#af" transform="matrix(1,0,0,1,518.5626561995957,-1788) translate(46.275 31.9)"/><use xlink:href="#m" transform="matrix(1,0,0,1,518.5626561995957,-1788) translate(64.225 31.9)"/><use xlink:href="#n" transform="matrix(1,0,0,1,518.5626561995957,-1788) translate(79.725 31.9)"/></g><path d="M578.48-1343.15a8 8 0 0 1 9.6 0l70.4 52.8a4.5 4.5 0 0 1 0 7.2l-70.4 52.8a8 8 0 0 1-9.6 0l-70.4-52.8a4.5 4.5 0 0 1 0-7.2z" stroke="#a9a9a9" stroke-width="2" fill="#f5fbff"/><g><use xlink:href="#af" transform="matrix(1,0,0,1,508.28132809979786,-1341.7511652015141) translate(48.279999999999994 59.0875)"/><use xlink:href="#p" transform="matrix(1,0,0,1,508.28132809979786,-1341.7511652015141) translate(66.22999999999999 59.0875)"/><use xlink:href="#q" transform="matrix(1,0,0,1,508.28132809979786,-1341.7511652015141) translate(81.72999999999999 59.0875)"/></g><path d="M623.28-1440c0 22.1-17.9 40-40 40s-40-17.9-40-40 17.9-40 40-40 40 17.9 40 40z" stroke="#a9a9a9" stroke-width="2" fill="#f5fbff"/><g><use xlink:href="#ag" transform="matrix(1,0,0,1,548.2813280997979,-1475) translate(28.525 38.4625)"/></g><path d="M583.28-1397.5v31.13" stroke="#bdf139" stroke-width="3" fill="none"/><path d="M583.27-1399l1.5-.05v1.6h-3v-1.64z" stroke="#bdf139" stroke-width=".05" fill="#bdf139"/><path d="M583.28-1350.6l-4.63-14.27h9.27z" stroke="#bdf139" stroke-width="3" fill="#bdf139"/><path d="M588.06-1841.78h-3v-17.72h3z" stroke="#bdf139" stroke-width=".05" fill="#bdf139"/><path d="M585.4-1861.07l1.16.07 1.16-.07.34-.07v1.68h-3v-1.68z" fill="#bdf139"/><path d="M585.4-1861.1l1.16.08 1.15-.08.4-.07v1.74h-3.06v-1.74zm-.3 1.62h2.94v-1.63l-.32.05-1.16.08-1.16-.08-.3-.06z" stroke="#bdf139" stroke-width=".05" fill="#bdf139"/><path d="M586.56-1805.82l-4.63-14.26h9.27z" fill="#bdf139"/><path d="M586.56-1800.96l-6.24-19.22h12.5zm-2.57-17.62l2.56 7.9 2.57-7.9z" stroke="#bdf139" stroke-width=".05" fill="#bdf139"/><g><use xlink:href="#L" transform="matrix(1,0,0,1,571.1126561995957,-1841.7806009814096) translate(0 14.4)"/></g><path d="M415.3-1918.5h-33.68v-3h33.68zm91.76 0h-52.8v-3h52.8z" stroke="#bdf139" stroke-width=".05" fill="#bdf139"/><path d="M508.65-1921l-.1 1 .1 1 .14.5H507v-3h1.77z" fill="#bdf139"/><path d="M508.68-1921l-.1 1 .1 1 .14.53H507v-3.06h1.82zm-1.64-.47v2.94h1.72l-.13-.45-.1-1.02.1-1.02.13-.45z" stroke="#bdf139" stroke-width=".05" fill="#bdf139"/><path d="M380.12-1915.36l-14.27-4.64 14.27-4.64z" fill="#bdf139"/><path d="M381.62-1913.3L361-1920l20.62-6.7zm-10.9-6.7l7.9 2.57v-5.14z" stroke="#bdf139" stroke-width=".05" fill="#bdf139"/><g><use xlink:href="#ab" transform="matrix(1,0,0,1,415.30450274193026,-1930.8) translate(0 14.4)"/></g><path d="M532.46-1647.95a10 10 0 0 1 8.82-5.3h106c8.84 0 16 26.86 16 60s-7.16 60-16 60h-106a10 10 0 0 1-8.82-5.3l-26.36-49.4a11.25 11.25 0 0 1 0-10.6z" stroke="#a9a9a9" stroke-width="2" fill="#f5fbff"/><g><use xlink:href="#ah" transform="matrix(1,0,0,1,508.28132809979786,-1648.248834798486) translate(68.07907407407409 57.42777777777778)"/></g><path d="M400-1674a6 6 0 0 1 6-6h68a6 6 0 0 1 6 6v148a6 6 0 0 1-6 6h-68a6 6 0 0 1-6-6z" fill="none"/><path d="M480-1520c-5.52 0-10-4.48-10-10v-60c0-5.52-4.48-10-10-10 5.52 0 10-4.48 10-10v-60c0-5.52 4.48-10 10-10" stroke="#a9a9a9" stroke-width="2" fill="none"/><g><use xlink:href="#ai" transform="matrix(1,0,0,1,405,-1675) translate(-37.150000000000006 67.8)"/><use xlink:href="#aj" transform="matrix(1,0,0,1,405,-1675) translate(-14.800000000000004 89.4)"/></g><path d="M586.56-1717.54v42.7" stroke="#bdf139" stroke-width="3" fill="none"/><path d="M588.06-1717.5h-3v-1.54h3z" stroke="#bdf139" stroke-width=".05" fill="#bdf139"/><path d="M586.56-1659.07l-4.63-14.27h9.27z" stroke="#bdf139" stroke-width="3" fill="#bdf139"/><path d="M583.7-1530.75v29.15" stroke="#bdf139" stroke-width="3" fill="none"/><path d="M585.2-1530.7h-3v-1.55h3z" stroke="#bdf139" stroke-width=".05" fill="#bdf139"/><path d="M583.7-1485.83l-4.64-14.27h9.27z" stroke="#bdf139" stroke-width="3" fill="#bdf139"/><path d="M532.46-1154.7a10 10 0 0 1 8.82-5.3h106c8.84 0 16 26.86 16 60s-7.16 60-16 60h-106a10 10 0 0 1-8.82-5.3l-26.36-49.4a11.25 11.25 0 0 1 0-10.6z" stroke="#a9a9a9" stroke-width="2" fill="#f5fbff"/><g><use xlink:href="#M" transform="matrix(1,0,0,1,508.28132809979786,-1155) translate(21.079999999999995 59.0875)"/><use xlink:href="#N" transform="matrix(1,0,0,1,508.28132809979786,-1155) translate(86.98 59.0875)"/><use xlink:href="#O" transform="matrix(1,0,0,1,508.28132809979786,-1155) translate(100.98 59.0875)"/><use xlink:href="#P" transform="matrix(1,0,0,1,508.28132809979786,-1155) translate(115.98 59.0875)"/><use xlink:href="#Q" transform="matrix(1,0,0,1,508.28132809979786,-1155) translate(124.93 59.0875)"/></g><path d="M584.78-1181.6h-3v-1.96h3zm0-23.56h-3v-21.1h3z" stroke="#bdf139" stroke-width=".05" fill="#bdf139"/><path d="M582.13-1227.82l1.15.07 1.16-.07.34-.07v1.7h-3v-1.7z" fill="#bdf139"/><path d="M582.13-1227.85l1.15.08 1.15-.08.38-.07v1.73h-3.04v-1.72zm-.32 1.6h2.96v-1.6l-.32.05-1.16.08-1.16-.08-.3-.06z" stroke="#bdf139" stroke-width=".05" fill="#bdf139"/><path d="M583.28-1165.82l-4.63-14.27h9.27z" fill="#bdf139"/><path d="M583.28-1160.97l-6.7-20.62h13.4zm-2.57-17.62l2.58 7.93 2.57-7.92z" stroke="#bdf139" stroke-width=".05" fill="#bdf139"/><g><use xlink:href="#L" transform="matrix(1,0,0,1,567.8313280997978,-1205.157103849201) translate(0 14.4)"/></g><path d="M623.28-940c0 22.1-17.9 40-40 40s-40-17.9-40-40 17.9-40 40-40 40 17.9 40 40z" stroke="#a9a9a9" stroke-width="2" fill="#f5fbff"/><g><use xlink:href="#ag" transform="matrix(1,0,0,1,548.2813280997979,-975) translate(28.525 38.4625)"/></g><path d="M583.7-1037.5v35.9" stroke="#bdf139" stroke-width="3" fill="none"/><path d="M585.2-1037.46h-3v-1.54h3z" stroke="#bdf139" stroke-width=".05" fill="#bdf139"/><path d="M583.7-985.83l-4.64-14.27h9.27z" stroke="#bdf139" stroke-width="3" fill="#bdf139"/><path d="M320-1294.45c0 22.1-17.9 40-40 40s-40-17.9-40-40 17.9-40 40-40 40 17.9 40 40z" stroke="#a9a9a9" stroke-width="2" fill="#f5fbff"/><g><use xlink:href="#ac" transform="matrix(1,0,0,1,245,-1329.4488347984861) translate(28.525 38.4625)"/></g><path d="M503.78-1288.25v3H432.6v-3zm-110.12-7.66v3l-52.04-.05v-3z" stroke="#bdf139" stroke-width=".05" fill="#bdf139"/><path d="M505.37-1287.77l-.1 1.02.1 1 .14.5h-1.76v-3h1.77z" fill="#bdf139"/><path d="M505.4-1287.76l-.1 1 .1 1.02.14.5h-1.83v-3.04h1.84zm-1.64-.47v2.95h1.72l-.13-.45-.1-1.02.1-1.02.13-.46z" stroke="#bdf139" stroke-width=".05" fill="#bdf139"/><path d="M340.12-1289.8l-14.27-4.65 14.27-4.63z" fill="#bdf139"/><path d="M341.62-1287.75l-20.62-6.7 20.62-6.7zm-10.9-6.7l7.9 2.57v-5.14z" stroke="#bdf139" stroke-width=".05" fill="#bdf139"/><g><use xlink:href="#ab" transform="matrix(1,0,0,1,393.6638394426118,-1301.4) translate(0 14.4)"/></g><defs><path fill="#fff" d="M24 0v-248h195v40H76v63h132v40H76v65h150V0H24" id="ak"/><path fill="#fff" d="M182 0l-62-99L58 0H3l86-130-79-118h55l55 88 55-88h55l-75 118L237 0h-55" id="al"/><path fill="#fff" d="M240-174c0 40-23 61-54 70L253 0h-59l-57-94H76V0H24v-248c93 4 217-23 216 74zM76-134c48-2 112 12 112-38 0-48-66-32-112-35v73" id="am"/><path fill="#fff" d="M67-125c0 53 21 87 73 88 37 1 54-22 65-47l45 17C233-25 199 4 140 4 58 4 20-42 15-125 8-235 124-281 211-232c18 10 29 29 36 50l-46 12c-8-25-30-41-62-41-52 0-71 34-72 86" id="an"/><path fill="#fff" d="M18-269v-5l45-45h45v8l-60 42H18zM24 0v-248h52V0H24" id="ao"/><path fill="#fff" d="M24 0v-248h52V0H24" id="ap"/><path fill="#fff" d="M140-251c80 0 125 45 125 126S219 4 139 4C58 4 15-44 15-125s44-126 125-126zm-1 214c52 0 73-35 73-88 0-50-21-86-72-86-52 0-73 35-73 86s22 88 72 88" id="aq"/><g id="a"><use transform="matrix(0.12345679012345673,0,0,0.12345679012345673,0,0)" xlink:href="#ak"/><use transform="matrix(0.12345679012345673,0,0,0.12345679012345673,29.629629629629616,0)" xlink:href="#al"/><use transform="matrix(0.12345679012345673,0,0,0.12345679012345673,59.25925925925923,0)" xlink:href="#ak"/><use transform="matrix(0.12345679012345673,0,0,0.12345679012345673,88.88888888888884,0)" xlink:href="#am"/><use transform="matrix(0.12345679012345673,0,0,0.12345679012345673,120.86419753086413,0)" xlink:href="#an"/><use transform="matrix(0.12345679012345673,0,0,0.12345679012345673,152.83950617283944,0)" xlink:href="#ao"/><use transform="matrix(0.12345679012345673,0,0,0.12345679012345673,165.1851851851851,0)" xlink:href="#an"/><use transform="matrix(0.12345679012345673,0,0,0.12345679012345673,197.1604938271604,0)" xlink:href="#ap"/><use transform="matrix(0.12345679012345673,0,0,0.12345679012345673,209.50617283950606,0)" xlink:href="#aq"/></g><path fill="#fff" d="M175 0L67-191c6 58 2 128 3 191H24v-248h59L193-55c-6-58-2-129-3-193h46V0h-61" id="ar"/><path fill="#fff" d="M24-248c120-7 223 5 221 122C244-46 201 0 124 0H24v-248zM76-40c74 7 117-18 117-86 0-67-45-88-117-82v168" id="as"/><path fill="#fff" d="M147 0H94L2-248h55l64 206c17-72 42-137 63-206h54" id="at"/><path fill="#fff" d="M238-95c0 69-44 99-111 99C63 4 22-25 22-93v-155h51v151c-1 38 19 59 55 60 90 1 49-130 58-211h52v153" id="au"/><path fill="#fff" d="M199 0l-22-63H83L61 0H9l90-248h61L250 0h-51zm-33-102l-36-108c-10 38-24 72-36 108h72" id="av"/><path fill="#fff" d="M24 0v-248h52v208h133V0H24" id="aw"/><g id="b"><use transform="matrix(0.12345679012345673,0,0,0.12345679012345673,0,0)" xlink:href="#ap"/><use transform="matrix(0.12345679012345673,0,0,0.12345679012345673,12.345679012345673,0)" xlink:href="#ar"/><use transform="matrix(0.12345679012345673,0,0,0.12345679012345673,44.320987654320966,0)" xlink:href="#as"/><use transform="matrix(0.12345679012345673,0,0,0.12345679012345673,76.29629629629626,0)" xlink:href="#ap"/><use transform="matrix(0.12345679012345673,0,0,0.12345679012345673,88.64197530864193,0)" xlink:href="#at"/><use transform="matrix(0.12345679012345673,0,0,0.12345679012345673,118.27160493827155,0)" xlink:href="#ap"/><use transform="matrix(0.12345679012345673,0,0,0.12345679012345673,130.61728395061724,0)" xlink:href="#as"/><use transform="matrix(0.12345679012345673,0,0,0.12345679012345673,162.59259259259252,0)" xlink:href="#au"/><use transform="matrix(0.12345679012345673,0,0,0.12345679012345673,194.5679012345678,0)" xlink:href="#av"/><use transform="matrix(0.12345679012345673,0,0,0.12345679012345673,226.5432098765431,0)" xlink:href="#aw"/></g><path fill="#fff" d="M14-72v-43h91v43H14" id="ax"/><use transform="matrix(0.12345679012345673,0,0,0.12345679012345673,0,0)" xlink:href="#ax" id="c"/><path fill="#fff" d="M136-208V0H84v-208H4v-40h212v40h-80" id="ay"/><path fill="#fff" d="M169-182c-1-43-94-46-97-3 18 66 151 10 154 114 3 95-165 93-204 36-6-8-10-19-12-30l50-8c3 46 112 56 116 5-17-69-150-10-154-114-4-87 153-88 188-35 5 8 8 18 10 28" id="az"/><g id="d"><use transform="matrix(0.12345679012345673,0,0,0.12345679012345673,0,0)" xlink:href="#at"/><use transform="matrix(0.12345679012345673,0,0,0.12345679012345673,29.629629629629616,0)" xlink:href="#ak"/><use transform="matrix(0.12345679012345673,0,0,0.12345679012345673,59.25925925925923,0)" xlink:href="#ay"/><use transform="matrix(0.12345679012345673,0,0,0.12345679012345673,85.43209876543206,0)" xlink:href="#aq"/><use transform="matrix(0.12345679012345673,0,0,0.12345679012345673,119.99999999999994,0)" xlink:href="#am"/><use transform="matrix(0.12345679012345673,0,0,0.12345679012345673,151.97530864197523,0)" xlink:href="#ak"/><use transform="matrix(0.12345679012345673,0,0,0.12345679012345673,181.60493827160485,0)" xlink:href="#az"/></g><use transform="matrix(0.12345679012345673,0,0,0.12345679012345673,0,0)" xlink:href="#av" id="e"/><path fill="#fff" d="M185-48c-13 30-37 53-82 52C43 2 14-33 14-96s30-98 90-98c62 0 83 45 84 108H66c0 31 8 55 39 56 18 0 30-7 34-22zm-45-69c5-46-57-63-70-21-2 6-4 13-4 21h74" id="aA"/><use transform="matrix(0.12345679012345673,0,0,0.12345679012345673,0,0)" xlink:href="#aA" id="f"/><path fill="#fff" d="M182-130c37 4 62 22 62 59C244 23 116-4 24 0v-248c84 5 203-23 205 63 0 31-19 50-47 55zM76-148c40-3 101 13 101-30 0-44-60-28-101-31v61zm0 110c48-3 116 14 116-37 0-48-69-32-116-35v72" id="aB"/><use transform="matrix(0.12345679012345673,0,0,0.12345679012345673,0,0)" xlink:href="#aB" id="g"/><path fill="#54c45e" d="M205 0l-28-72H64L36 0H1l101-248h38L239 0h-34zm-38-99l-47-123c-12 45-31 82-46 123h93" id="aC"/><path fill="#54c45e" d="M30 0v-248h33v221h125V0H30" id="aD"/><path fill="#54c45e" d="M143 4C61 4 22-44 18-125c-5-107 100-154 193-111 17 8 29 25 37 43l-32 9c-13-25-37-40-76-40-61 0-88 39-88 99 0 61 29 100 91 101 35 0 62-11 79-27v-45h-74v-28h105v86C228-13 192 4 143 4" id="aE"/><path fill="#54c45e" d="M140-251c81 0 123 46 123 126C263-46 219 4 140 4 59 4 17-45 17-125s42-126 123-126zm0 227c63 0 89-41 89-101s-29-99-89-99c-61 0-89 39-89 99S79-25 140-24" id="aF"/><path fill="#54c45e" d="M233-177c-1 41-23 64-60 70L243 0h-38l-65-103H63V0H30v-248c88 3 205-21 203 71zM63-129c60-2 137 13 137-47 0-61-80-42-137-45v92" id="aG"/><path fill="#54c45e" d="M33 0v-248h34V0H33" id="aH"/><path fill="#54c45e" d="M127-220V0H93v-220H8v-28h204v28h-85" id="aI"/><path fill="#54c45e" d="M240 0l2-218c-23 76-54 145-80 218h-23L58-218 59 0H30v-248h44l77 211c21-75 51-140 76-211h43V0h-30" id="aJ"/><path fill="#54c45e" d="M185-189c-5-48-123-54-124 2 14 75 158 14 163 119 3 78-121 87-175 55-17-10-28-26-33-46l33-7c5 56 141 63 141-1 0-78-155-14-162-118-5-82 145-84 179-34 5 7 8 16 11 25" id="aK"/><g id="h"><use transform="matrix(0.0987654320987654,0,0,0.0987654320987654,0,0)" xlink:href="#aC"/><use transform="matrix(0.0987654320987654,0,0,0.0987654320987654,23.703703703703695,0)" xlink:href="#aD"/><use transform="matrix(0.0987654320987654,0,0,0.0987654320987654,43.45679012345677,0)" xlink:href="#aE"/><use transform="matrix(0.0987654320987654,0,0,0.0987654320987654,71.11111111111109,0)" xlink:href="#aF"/><use transform="matrix(0.0987654320987654,0,0,0.0987654320987654,98.7654320987654,0)" xlink:href="#aG"/><use transform="matrix(0.0987654320987654,0,0,0.0987654320987654,124.34567901234564,0)" xlink:href="#aH"/><use transform="matrix(0.0987654320987654,0,0,0.0987654320987654,134.22222222222217,0)" xlink:href="#aI"/><use transform="matrix(0.0987654320987654,0,0,0.0987654320987654,155.8518518518518,0)" xlink:href="#aJ"/><use transform="matrix(0.0987654320987654,0,0,0.0987654320987654,185.38271604938265,0)" xlink:href="#aF"/><use transform="matrix(0.0987654320987654,0,0,0.0987654320987654,213.03703703703695,0)" xlink:href="#aK"/></g><path fill="#54c45e" d="M30-248c118-7 216 8 213 122C240-48 200 0 122 0H30v-248zM63-27c89 8 146-16 146-99s-60-101-146-95v194" id="aL"/><path fill="#54c45e" d="M30 0v-248h187v28H63v79h144v27H63v87h162V0H30" id="aM"/><g id="i"><use transform="matrix(0.0987654320987654,0,0,0.0987654320987654,0,0)" xlink:href="#aL"/><use transform="matrix(0.0987654320987654,0,0,0.0987654320987654,25.58024691358024,0)" xlink:href="#aM"/></g><path fill="#54c45e" d="M30-248c87 1 191-15 191 75 0 78-77 80-158 76V0H30v-248zm33 125c57 0 124 11 124-50 0-59-68-47-124-48v98" id="aN"/><path fill="#54c45e" d="M212-179c-10-28-35-45-73-45-59 0-87 40-87 99 0 60 29 101 89 101 43 0 62-24 78-52l27 14C228-24 195 4 139 4 59 4 22-46 18-125c-6-104 99-153 187-111 19 9 31 26 39 46zM142 18c19-1 33 8 33 26 0 31-30 33-64 32V58c18 2 39 4 41-13 1-15-18-13-34-13l12-32h19" id="aO"/><path fill="#54c45e" d="M184-316c-4 23-8 48-36 47s-64-43-75 0H57c4-23 8-48 36-47s64 44 74 0h17zM205 0l-28-72H64L36 0H1l101-248h38L239 0h-34zm-38-99l-47-123c-12 45-31 82-46 123h93" id="aP"/><g id="j"><use transform="matrix(0.0987654320987654,0,0,0.0987654320987654,0,0)" xlink:href="#aN"/><use transform="matrix(0.0987654320987654,0,0,0.0987654320987654,23.703703703703695,0)" xlink:href="#aG"/><use transform="matrix(0.0987654320987654,0,0,0.0987654320987654,49.283950617283935,0)" xlink:href="#aF"/><use transform="matrix(0.0987654320987654,0,0,0.0987654320987654,76.93827160493825,0)" xlink:href="#aE"/><use transform="matrix(0.0987654320987654,0,0,0.0987654320987654,104.59259259259255,0)" xlink:href="#aC"/><use transform="matrix(0.0987654320987654,0,0,0.0987654320987654,128.29629629629625,0)" xlink:href="#aJ"/><use transform="matrix(0.0987654320987654,0,0,0.0987654320987654,157.8271604938271,0)" xlink:href="#aC"/><use transform="matrix(0.0987654320987654,0,0,0.0987654320987654,181.5308641975308,0)" xlink:href="#aO"/><use transform="matrix(0.0987654320987654,0,0,0.0987654320987654,207.11111111111103,0)" xlink:href="#aP"/><use transform="matrix(0.0987654320987654,0,0,0.0987654320987654,230.81481481481472,0)" xlink:href="#aF"/></g><path fill="#282c33" d="M33 0v-248h34V0H33" id="aQ"/><path fill="#282c33" d="M190 0L58-211 59 0H30v-248h39L202-35l-2-213h31V0h-41" id="aR"/><path fill="#282c33" d="M212-179c-10-28-35-45-73-45-59 0-87 40-87 99 0 60 29 101 89 101 43 0 62-24 78-52l27 14C228-24 195 4 139 4 59 4 22-46 18-125c-6-104 99-153 187-111 19 9 31 26 39 46" id="aS"/><path fill="#282c33" d="M140-251c81 0 123 46 123 126C263-46 219 4 140 4 59 4 17-45 17-125s42-126 123-126zm0 227c63 0 89-41 89-101s-29-99-89-99c-61 0-89 39-89 99S79-25 140-24" id="aT"/><g id="k"><use transform="matrix(0.05,0,0,0.05,0,0)" xlink:href="#aQ"/><use transform="matrix(0.05,0,0,0.05,5,0)" xlink:href="#aR"/><use transform="matrix(0.05,0,0,0.05,17.950000000000003,0)" xlink:href="#aQ"/><use transform="matrix(0.05,0,0,0.05,22.950000000000003,0)" xlink:href="#aS"/><use transform="matrix(0.05,0,0,0.05,35.900000000000006,0)" xlink:href="#aQ"/><use transform="matrix(0.05,0,0,0.05,40.900000000000006,0)" xlink:href="#aT"/></g><path fill="#282c33" d="M96-169c-40 0-48 33-48 73s9 75 48 75c24 0 41-14 43-38l32 2c-6 37-31 61-74 61-59 0-76-41-82-99-10-93 101-131 147-64 4 7 5 14 7 22l-32 3c-4-21-16-35-41-35" id="aU"/><use transform="matrix(0.05,0,0,0.05,0,0)" xlink:href="#aU" id="l"/><path fill="#282c33" d="M18-150v-26h174v26H18zm0 90v-26h174v26H18" id="aV"/><use transform="matrix(0.05,0,0,0.05,0,0)" xlink:href="#aV" id="m"/><path fill="#282c33" d="M101-251c68 0 85 55 85 127S166 4 100 4C33 4 14-52 14-124c0-73 17-127 87-127zm-1 229c47 0 54-49 54-102s-4-102-53-102c-51 0-55 48-55 102 0 53 5 102 54 102" id="aW"/><use transform="matrix(0.05,0,0,0.05,0,0)" xlink:href="#aW" id="n"/><path fill="#282c33" d="M205 0l-28-72H64L36 0H1l101-248h38L239 0h-34zm-38-99l-47-123c-12 45-31 82-46 123h93" id="aX"/><use transform="matrix(0.05,0,0,0.05,0,0)" xlink:href="#aX" id="o"/><path fill="#282c33" d="M18-100v-36l175-74v27L42-118l151 64v27" id="aY"/><use transform="matrix(0.05,0,0,0.05,0,0)" xlink:href="#aY" id="p"/><path fill="#282c33" d="M27 0v-27h64v-190l-56 39v-29l58-41h29v221h61V0H27" id="aZ"/><path fill="#282c33" d="M110-160c48 1 74 30 74 79 0 53-28 85-80 85-65 0-83-55-86-122-5-90 50-162 133-122 14 7 22 21 27 39l-31 6c-5-40-67-38-82-6-9 19-15 44-15 74 11-20 30-34 60-33zm-7 138c34 0 49-23 49-58s-16-56-50-56c-29 0-50 16-49 49 1 36 15 65 50 65" id="ba"/><g id="q"><use transform="matrix(0.05,0,0,0.05,0,0)" xlink:href="#aZ"/><use transform="matrix(0.05,0,0,0.05,10,0)" xlink:href="#ba"/></g><path fill="#fff" d="M185-189c-5-48-123-54-124 2 14 75 158 14 163 119 3 78-121 87-175 55-17-10-28-26-33-46l33-7c5 56 141 63 141-1 0-78-155-14-162-118-5-82 145-84 179-34 5 7 8 16 11 25" id="bb"/><path fill="#fff" d="M24-231v-30h32v30H24zM24 0v-190h32V0H24" id="bc"/><path fill="#fff" d="M210-169c-67 3-38 105-44 169h-31v-121c0-29-5-50-35-48C34-165 62-65 56 0H25l-1-190h30c1 10-1 24 2 32 10-44 99-50 107 0 11-21 27-35 58-36 85-2 47 119 55 194h-31v-121c0-29-5-49-35-48" id="bd"/><g id="r"><use transform="matrix(0.08086419753086417,0,0,0.08086419753086417,0,0)" xlink:href="#bb"/><use transform="matrix(0.08086419753086417,0,0,0.08086419753086417,19.4074074074074,0)" xlink:href="#bc"/><use transform="matrix(0.08086419753086417,0,0,0.08086419753086417,25.79567901234567,0)" xlink:href="#bd"/></g><path fill="#282c33" d="M24 0v-261h32V0H24" id="be"/><use transform="matrix(0.05,0,0,0.05,0,0)" xlink:href="#be" id="s"/><path fill="#282c33" d="M30-248c118-7 216 8 213 122C240-48 200 0 122 0H30v-248zM63-27c89 8 146-16 146-99s-60-101-146-95v194" id="bf"/><path fill="#282c33" d="M47-170H22l-4-78h33" id="bg"/><path fill="#282c33" d="M135-143c-3-34-86-38-87 0 15 53 115 12 119 90S17 21 10-45l28-5c4 36 97 45 98 0-10-56-113-15-118-90-4-57 82-63 122-42 12 7 21 19 24 35" id="bh"/><g id="t"><use transform="matrix(0.05,0,0,0.05,0,0)" xlink:href="#aQ"/><use transform="matrix(0.05,0,0,0.05,5,0)" xlink:href="#bf"/><use transform="matrix(0.05,0,0,0.05,17.950000000000003,0)" xlink:href="#bg"/><use transform="matrix(0.05,0,0,0.05,21.35,0)" xlink:href="#bh"/></g><path fill="#282c33" d="M85-194c31 0 48 13 60 33l-1-100h32l1 261h-30c-2-10 0-23-3-31C134-8 116 4 85 4 32 4 16-35 15-94c0-66 23-100 70-100zm9 24c-40 0-46 34-46 75 0 40 6 74 45 74 42 0 51-32 51-76 0-42-9-74-50-73" id="bi"/><path fill="#282c33" d="M141-36C126-15 110 5 73 4 37 3 15-17 15-53c-1-64 63-63 125-63 3-35-9-54-41-54-24 1-41 7-42 31l-33-3c5-37 33-52 76-52 45 0 72 20 72 64v82c-1 20 7 32 28 27v20c-31 9-61-2-59-35zM48-53c0 20 12 33 32 33 41-3 63-29 60-74-43 2-92-5-92 41" id="bj"/><g id="u"><use transform="matrix(0.05,0,0,0.05,0,0)" xlink:href="#bi"/><use transform="matrix(0.05,0,0,0.05,10,0)" xlink:href="#bj"/><use transform="matrix(0.05,0,0,0.05,20,0)" xlink:href="#bh"/></g><path fill="#282c33" d="M100-194c62-1 85 37 85 99 1 63-27 99-86 99S16-35 15-95c0-66 28-99 85-99zM99-20c44 1 53-31 53-75 0-43-8-75-51-75s-53 32-53 75 10 74 51 75" id="bk"/><path fill="#282c33" d="M114-163C36-179 61-72 57 0H25l-1-190h30c1 12-1 29 2 39 6-27 23-49 58-41v29" id="bl"/><path fill="#282c33" d="M100-194c63 0 86 42 84 106H49c0 40 14 67 53 68 26 1 43-12 49-29l28 8c-11 28-37 45-77 45C44 4 14-33 15-96c1-61 26-98 85-98zm52 81c6-60-76-77-97-28-3 7-6 17-6 28h103" id="bm"/><g id="v"><use transform="matrix(0.05,0,0,0.05,0,0)" xlink:href="#aU"/><use transform="matrix(0.05,0,0,0.05,9,0)" xlink:href="#bk"/><use transform="matrix(0.05,0,0,0.05,19,0)" xlink:href="#bl"/><use transform="matrix(0.05,0,0,0.05,24.95,0)" xlink:href="#bm"/><use transform="matrix(0.05,0,0,0.05,34.95,0)" xlink:href="#bh"/></g><use transform="matrix(0.05,0,0,0.05,0,0)" xlink:href="#aW" id="w"/><path fill="#282c33" d="M16-82v-28h88v28H16" id="bn"/><use transform="matrix(0.05,0,0,0.05,0,0)" xlink:href="#bn" id="x"/><path fill="#282c33" d="M160-131c35 5 61 23 61 61C221 17 115-2 30 0v-248c76 3 177-17 177 60 0 33-19 50-47 57zm-97-11c50-1 110 9 110-42 0-47-63-36-110-37v79zm0 115c55-2 124 14 124-45 0-56-70-42-124-44v89" id="bo"/><path fill="#282c33" d="M117-194c89-4 53 116 60 194h-32v-121c0-31-8-49-39-48C34-167 62-67 57 0H25l-1-190h30c1 10-1 24 2 32 11-22 29-35 61-36" id="bp"/><g id="y"><use transform="matrix(0.05,0,0,0.05,0,0)" xlink:href="#bo"/><use transform="matrix(0.05,0,0,0.05,12,0)" xlink:href="#bl"/><use transform="matrix(0.05,0,0,0.05,17.95,0)" xlink:href="#bj"/><use transform="matrix(0.05,0,0,0.05,27.950000000000003,0)" xlink:href="#bp"/><use transform="matrix(0.05,0,0,0.05,37.95,0)" xlink:href="#aU"/><use transform="matrix(0.05,0,0,0.05,46.95,0)" xlink:href="#bk"/></g><use transform="matrix(0.05,0,0,0.05,0,0)" xlink:href="#aZ" id="z"/><path fill="#282c33" d="M30-248c87 1 191-15 191 75 0 78-77 80-158 76V0H30v-248zm33 125c57 0 124 11 124-50 0-59-68-47-124-48v98" id="bq"/><path fill="#282c33" d="M59-47c-2 24 18 29 38 22v24C64 9 27 4 27-40v-127H5v-23h24l9-43h21v43h35v23H59v120" id="br"/><g id="A"><use transform="matrix(0.05,0,0,0.05,0,0)" xlink:href="#bq"/><use transform="matrix(0.05,0,0,0.05,12,0)" xlink:href="#bl"/><use transform="matrix(0.05,0,0,0.05,17.95,0)" xlink:href="#bm"/><use transform="matrix(0.05,0,0,0.05,27.950000000000003,0)" xlink:href="#br"/><use transform="matrix(0.05,0,0,0.05,32.95,0)" xlink:href="#bk"/></g><path fill="#282c33" d="M101-251c82-7 93 87 43 132L82-64C71-53 59-42 53-27h129V0H18c2-99 128-94 128-182 0-28-16-43-45-43s-46 15-49 41l-32-3c6-41 34-60 81-64" id="bs"/><use transform="matrix(0.05,0,0,0.05,0,0)" xlink:href="#bs" id="B"/><path fill="#282c33" d="M137 0h-34L2-248h35l83 218 83-218h36" id="bt"/><path fill="#282c33" d="M210-169c-67 3-38 105-44 169h-31v-121c0-29-5-50-35-48C34-165 62-65 56 0H25l-1-190h30c1 10-1 24 2 32 10-44 99-50 107 0 11-21 27-35 58-36 85-2 47 119 55 194h-31v-121c0-29-5-49-35-48" id="bu"/><path fill="#282c33" d="M106-169C34-169 62-67 57 0H25v-261h32l-1 103c12-21 28-36 61-36 89 0 53 116 60 194h-32v-121c2-32-8-49-39-48" id="bv"/><g id="C"><use transform="matrix(0.05,0,0,0.05,0,0)" xlink:href="#bt"/><use transform="matrix(0.05,0,0,0.05,11,0)" xlink:href="#bm"/><use transform="matrix(0.05,0,0,0.05,21,0)" xlink:href="#bl"/><use transform="matrix(0.05,0,0,0.05,26.950000000000003,0)" xlink:href="#bu"/><use transform="matrix(0.05,0,0,0.05,41.9,0)" xlink:href="#bm"/><use transform="matrix(0.05,0,0,0.05,51.900000000000006,0)" xlink:href="#be"/><use transform="matrix(0.05,0,0,0.05,55.85,0)" xlink:href="#bv"/><use transform="matrix(0.05,0,0,0.05,65.85,0)" xlink:href="#bk"/></g><path fill="#282c33" d="M126-127c33 6 58 20 58 59 0 88-139 92-164 29-3-8-5-16-6-25l32-3c6 27 21 44 54 44 32 0 52-15 52-46 0-38-36-46-79-43v-28c39 1 72-4 72-42 0-27-17-43-46-43-28 0-47 15-49 41l-32-3c6-42 35-63 81-64 48-1 79 21 79 65 0 36-21 52-52 59" id="bw"/><use transform="matrix(0.05,0,0,0.05,0,0)" xlink:href="#bw" id="D"/><path fill="#282c33" d="M177-190C167-65 218 103 67 71c-23-6-38-20-44-43l32-5c15 47 100 32 89-28v-30C133-14 115 1 83 1 29 1 15-40 15-95c0-56 16-97 71-98 29-1 48 16 59 35 1-10 0-23 2-32h30zM94-22c36 0 50-32 50-73 0-42-14-75-50-75-39 0-46 34-46 75s6 73 46 73" id="bx"/><g id="E"><use transform="matrix(0.05,0,0,0.05,0,0)" xlink:href="#bo"/><use transform="matrix(0.05,0,0,0.05,12,0)" xlink:href="#bm"/><use transform="matrix(0.05,0,0,0.05,22,0)" xlink:href="#bx"/><use transform="matrix(0.05,0,0,0.05,32,0)" xlink:href="#bm"/></g><path fill="#282c33" d="M24-231v-30h32v30H24zM24 0v-190h32V0H24" id="by"/><g id="F"><use transform="matrix(0.05,0,0,0.05,0,0)" xlink:href="#bf"/><use transform="matrix(0.05,0,0,0.05,12.950000000000001,0)" xlink:href="#by"/><use transform="matrix(0.05,0,0,0.05,16.900000000000002,0)" xlink:href="#bx"/><use transform="matrix(0.05,0,0,0.05,26.900000000000002,0)" xlink:href="#by"/><use transform="matrix(0.05,0,0,0.05,30.85,0)" xlink:href="#br"/><use transform="matrix(0.05,0,0,0.05,35.85,0)" xlink:href="#bm"/></g><use transform="matrix(0.05,0,0,0.05,0,0)" xlink:href="#bj" id="G"/><g id="H"><use transform="matrix(0.05,0,0,0.05,0,0)" xlink:href="#aU"/><use transform="matrix(0.05,0,0,0.05,9,0)" xlink:href="#bk"/><use transform="matrix(0.05,0,0,0.05,19,0)" xlink:href="#bl"/></g><g id="I"><use transform="matrix(0.05,0,0,0.05,0,0)" xlink:href="#bi"/><use transform="matrix(0.05,0,0,0.05,10,0)" xlink:href="#bj"/></g><g id="J"><use transform="matrix(0.05,0,0,0.05,0,0)" xlink:href="#be"/><use transform="matrix(0.05,0,0,0.05,3.95,0)" xlink:href="#by"/><use transform="matrix(0.05,0,0,0.05,7.9,0)" xlink:href="#bp"/><use transform="matrix(0.05,0,0,0.05,17.9,0)" xlink:href="#bv"/><use transform="matrix(0.05,0,0,0.05,27.899999999999995,0)" xlink:href="#bj"/></g><path fill="#282c33" d="M26 75v-336h71v23H56V52h41v23H26" id="bz"/><path fill="#282c33" d="M252-156c43 0 55 33 55 80 0 46-13 78-56 78-42 0-55-33-55-78 0-48 12-80 56-80zM93 0H65l162-248h28zM13-171c-1-47 13-79 56-79s55 33 55 79-13 79-55 79c-43 0-56-33-56-79zM251-17c28 0 30-29 30-59 0-31-1-60-29-60-29 0-31 29-31 60 0 29 2 59 30 59zM69-112c27 0 28-30 29-59 0-31-1-60-29-60-29 0-30 30-30 60s2 59 30 59" id="bA"/><path fill="#282c33" d="M3 75V52h41v-290H3v-23h71V75H3" id="bB"/><path fill="#282c33" d="M68-38c1 34 0 65-14 84H32c9-13 17-26 17-46H33v-38h35" id="bC"/><path fill="#282c33" d="M33-154v-36h34v36H33zM33 0v-36h34V0H33" id="bD"/><g id="K"><use transform="matrix(0.05,0,0,0.05,0,0)" xlink:href="#bz"/><use transform="matrix(0.05,0,0,0.05,5,0)" xlink:href="#bA"/><use transform="matrix(0.05,0,0,0.05,21,0)" xlink:href="#bi"/><use transform="matrix(0.05,0,0,0.05,31,0)" xlink:href="#bB"/><use transform="matrix(0.05,0,0,0.05,36,0)" xlink:href="#bC"/><use transform="matrix(0.05,0,0,0.05,41,0)" xlink:href="#bz"/><use transform="matrix(0.05,0,0,0.05,46,0)" xlink:href="#bA"/><use transform="matrix(0.05,0,0,0.05,62,0)" xlink:href="#bi"/><use transform="matrix(0.05,0,0,0.05,72,0)" xlink:href="#bB"/><use transform="matrix(0.05,0,0,0.05,77,0)" xlink:href="#bD"/></g><g id="L"><use transform="matrix(0.05,0,0,0.05,0,0)" xlink:href="#bb"/><use transform="matrix(0.05,0,0,0.05,12,0)" xlink:href="#bc"/><use transform="matrix(0.05,0,0,0.05,15.949999999999998,0)" xlink:href="#bd"/></g><path fill="#282c33" d="M115-194c55 1 70 41 70 98S169 2 115 4C84 4 66-9 55-30l1 105H24l-1-265h31l2 30c10-21 28-34 59-34zm-8 174c40 0 45-34 45-75s-6-73-45-74c-42 0-51 32-51 76 0 43 10 73 51 73" id="bE"/><path fill="#282c33" d="M179-190L93 31C79 59 56 82 12 73V49c39 6 53-20 64-50L1-190h34L92-34l54-156h33" id="bF"/><g id="M"><use transform="matrix(0.05,0,0,0.05,0,0)" xlink:href="#bi"/><use transform="matrix(0.05,0,0,0.05,10,0)" xlink:href="#by"/><use transform="matrix(0.05,0,0,0.05,13.949999999999998,0)" xlink:href="#bh"/><use transform="matrix(0.05,0,0,0.05,22.95,0)" xlink:href="#bE"/><use transform="matrix(0.05,0,0,0.05,32.95,0)" xlink:href="#be"/><use transform="matrix(0.05,0,0,0.05,36.900000000000006,0)" xlink:href="#bj"/><use transform="matrix(0.05,0,0,0.05,46.900000000000006,0)" xlink:href="#bF"/><use transform="matrix(0.05,0,0,0.05,55.900000000000006,0)" xlink:href="#bz"/></g><use transform="matrix(0.05,0,0,0.05,0,0)" xlink:href="#aU" id="N"/><g id="O"><use transform="matrix(0.05,0,0,0.05,0,0)" xlink:href="#bB"/><use transform="matrix(0.05,0,0,0.05,5,0)" xlink:href="#bz"/></g><use transform="matrix(0.05,0,0,0.05,0,0)" xlink:href="#be" id="P"/><use transform="matrix(0.05,0,0,0.05,0,0)" xlink:href="#bB" id="Q"/><use transform="matrix(0.05,0,0,0.05,0,0)" xlink:href="#bB" id="R"/><use transform="matrix(0.05,0,0,0.05,0,0)" xlink:href="#aW" id="S"/><path fill="#282c33" d="M84 4C-5 8 30-112 23-190h32v120c0 31 7 50 39 49 72-2 45-101 50-169h31l1 190h-30c-1-10 1-25-2-33-11 22-28 36-60 37" id="bG"/><g id="T"><use transform="matrix(0.05,0,0,0.05,0,0)" xlink:href="#bk"/><use transform="matrix(0.05,0,0,0.05,10,0)" xlink:href="#bG"/></g><path fill="#282c33" d="M18-27v-27l151-64-151-65v-27l175 74v36" id="bH"/><g id="U"><use transform="matrix(0.05,0,0,0.05,0,0)" xlink:href="#bH"/><use transform="matrix(0.05,0,0,0.05,10.5,0)" xlink:href="#bw"/></g><path fill="#282c33" d="M80-196l47-18 7 23-49 13 32 44-20 13-27-46-27 45-21-12 33-44-49-13 8-23 47 19-2-53h23" id="bI"/><path fill="#282c33" d="M30 0v-248h187v28H63v79h144v27H63v87h162V0H30" id="bJ"/><path fill="#282c33" d="M233-177c-1 41-23 64-60 70L243 0h-38l-65-103H63V0H30v-248c88 3 205-21 203 71zM63-129c60-2 137 13 137-47 0-61-80-42-137-45v92" id="bK"/><g id="V"><use transform="matrix(0.05,0,0,0.05,0,0)" xlink:href="#bI"/><use transform="matrix(0.05,0,0,0.05,7,0)" xlink:href="#bI"/><use transform="matrix(0.05,0,0,0.05,14,0)" xlink:href="#bI"/><use transform="matrix(0.05,0,0,0.05,21,0)" xlink:href="#bJ"/><use transform="matrix(0.05,0,0,0.05,33,0)" xlink:href="#bK"/><use transform="matrix(0.05,0,0,0.05,45.95,0)" xlink:href="#bK"/><use transform="matrix(0.05,0,0,0.05,58.900000000000006,0)" xlink:href="#aT"/></g><g id="W"><use transform="matrix(0.05,0,0,0.05,0,0)" xlink:href="#be"/><use transform="matrix(0.05,0,0,0.05,3.95,0)" xlink:href="#bn"/><use transform="matrix(0.05,0,0,0.05,9.9,0)" xlink:href="#bn"/></g><path fill="#fff" d="M137-138c1-29-70-34-71-4 15 46 118 7 119 86 1 83-164 76-172 9l43-7c4 19 20 25 44 25 33 8 57-30 24-41C81-84 22-81 20-136c-2-80 154-74 161-7" id="bL"/><path fill="#fff" d="M115-3C79 11 28 4 28-45v-112H4v-33h27l15-45h31v45h36v33H77v99c-1 23 16 31 38 25v30" id="bM"/><g id="X"><use transform="matrix(0.05,0,0,0.05,0,0)" xlink:href="#am"/><use transform="matrix(0.05,0,0,0.05,12.950000000000001,0)" xlink:href="#aA"/><use transform="matrix(0.05,0,0,0.05,22.950000000000003,0)" xlink:href="#bL"/><use transform="matrix(0.05,0,0,0.05,32.95,0)" xlink:href="#aA"/><use transform="matrix(0.05,0,0,0.05,42.95,0)" xlink:href="#bM"/></g><path fill="#fff" d="M88-194c31-1 46 15 58 34l-1-101h50l1 261h-48c-2-10 0-23-3-31C134-8 116 4 84 4 32 4 16-41 15-95c0-56 19-97 73-99zm17 164c33 0 40-30 41-66 1-37-9-64-41-64s-38 30-39 65c0 43 13 65 39 65" id="bN"/><path fill="#fff" d="M133-34C117-15 103 5 69 4 32 3 11-16 11-54c-1-60 55-63 116-61 1-26-3-47-28-47-18 1-26 9-28 27l-52-2c7-38 36-58 82-57s74 22 75 68l1 82c-1 14 12 18 25 15v27c-30 8-71 5-69-32zm-48 3c29 0 43-24 42-57-32 0-66-3-65 30 0 17 8 27 23 27" id="bO"/><g id="Y"><use transform="matrix(0.05,0,0,0.05,0,0)" xlink:href="#bN"/><use transform="matrix(0.05,0,0,0.05,10.950000000000001,0)" xlink:href="#bO"/></g><path fill="#fff" d="M135-194c53 0 70 44 70 98 0 56-19 98-73 100-31 1-45-17-59-34 3 33 2 69 2 105H25l-1-265h48c2 10 0 23 3 31 11-24 29-35 60-35zM114-30c33 0 39-31 40-66 0-38-9-64-40-64-56 0-55 130 0 130" id="bP"/><path fill="#fff" d="M135-150c-39-12-60 13-60 57V0H25l-1-190h47c2 13-1 29 3 40 6-28 27-53 61-41v41" id="bQ"/><path fill="#fff" d="M195-6C206 82 75 100 31 46c-4-6-6-13-8-21l49-6c3 16 16 24 34 25 40 0 42-37 40-79-11 22-30 35-61 35-53 0-70-43-70-97 0-56 18-96 73-97 30 0 46 14 59 34l2-30h47zm-90-29c32 0 41-27 41-63 0-35-9-62-40-62-32 0-39 29-40 63 0 36 9 62 39 62" id="bR"/><path fill="#fff" d="M85 4C-2 5 27-109 22-190h50c7 57-23 150 33 157 60-5 35-97 40-157h50l1 190h-47c-2-12 1-28-3-38-12 25-28 42-61 42" id="bS"/><path fill="#fff" d="M135-194c87-1 58 113 63 194h-50c-7-57 23-157-34-157-59 0-34 97-39 157H25l-1-190h47c2 12-1 28 3 38 12-26 28-41 61-42" id="bT"/><g id="Z"><use transform="matrix(0.05,0,0,0.05,0,0)" xlink:href="#bP"/><use transform="matrix(0.05,0,0,0.05,10.950000000000001,0)" xlink:href="#aA"/><use transform="matrix(0.05,0,0,0.05,20.950000000000003,0)" xlink:href="#bQ"/><use transform="matrix(0.05,0,0,0.05,27.950000000000003,0)" xlink:href="#bR"/><use transform="matrix(0.05,0,0,0.05,38.900000000000006,0)" xlink:href="#bS"/><use transform="matrix(0.05,0,0,0.05,49.85000000000001,0)" xlink:href="#bT"/><use transform="matrix(0.05,0,0,0.05,60.80000000000001,0)" xlink:href="#bM"/><use transform="matrix(0.05,0,0,0.05,66.75000000000001,0)" xlink:href="#bO"/></g><use transform="matrix(0.05,0,0,0.05,0,0)" xlink:href="#bo" id="aa"/><path fill="#fff" d="M190 0L58-211 59 0H30v-248h39L202-35l-2-213h31V0h-41" id="bU"/><path fill="#fff" d="M184-316c-4 23-8 48-36 47s-64-43-75 0H57c4-23 8-48 36-47s64 44 74 0h17zM205 0l-28-72H64L36 0H1l101-248h38L239 0h-34zm-38-99l-47-123c-12 45-31 82-46 123h93" id="bV"/><path fill="#fff" d="M140-251c81 0 123 46 123 126C263-46 219 4 140 4 59 4 17-45 17-125s42-126 123-126zm0 227c63 0 89-41 89-101s-29-99-89-99c-61 0-89 39-89 99S79-25 140-24" id="bW"/><g id="ab"><use transform="matrix(0.05,0,0,0.05,0,0)" xlink:href="#bU"/><use transform="matrix(0.05,0,0,0.05,12.950000000000001,0)" xlink:href="#bV"/><use transform="matrix(0.05,0,0,0.05,24.950000000000003,0)" xlink:href="#bW"/></g><use transform="matrix(0.05,0,0,0.05,0,0)" xlink:href="#aS" id="ac"/><g id="ad"><use transform="matrix(0.08086419753086417,0,0,0.08086419753086417,0,0)" xlink:href="#bU"/><use transform="matrix(0.08086419753086417,0,0,0.08086419753086417,20.94382716049382,0)" xlink:href="#bV"/><use transform="matrix(0.08086419753086417,0,0,0.08086419753086417,40.35123456790122,0)" xlink:href="#bW"/></g><path fill="#282c33" d="M63-220v92h138v28H63V0H30v-248h175v28H63" id="bX"/><path fill="#282c33" d="M240 0l2-218c-23 76-54 145-80 218h-23L58-218 59 0H30v-248h44l77 211c21-75 51-140 76-211h43V0h-30" id="bY"/><g id="ae"><use transform="matrix(0.05,0,0,0.05,0,0)" xlink:href="#bX"/><use transform="matrix(0.05,0,0,0.05,10.950000000000001,0)" xlink:href="#aQ"/><use transform="matrix(0.05,0,0,0.05,15.950000000000001,0)" xlink:href="#bY"/></g><use transform="matrix(0.05,0,0,0.05,0,0)" xlink:href="#aS" id="af"/><use transform="matrix(0.05,0,0,0.05,0,0)" xlink:href="#bf" id="ag"/><path fill="#282c33" d="M72 4L0-261h28L100 4H72" id="bZ"/><g id="ah"><use transform="matrix(0.056172839506172835,0,0,0.056172839506172835,0,0)" xlink:href="#bZ"/><use transform="matrix(0.056172839506172835,0,0,0.056172839506172835,5.617283950617283,0)" xlink:href="#bp"/></g><path fill="#fff" d="M140-251c80 0 125 45 125 126 0 70-33 111-92 124 6 28 34 38 68 31l-1 36C177 83 129 55 120 2 51-6 15-50 15-125c0-81 44-126 125-126zm-1 214c52 0 73-35 73-88 0-50-21-86-72-86-52 0-73 35-73 86s22 88 72 88" id="ca"/><g id="ai"><use transform="matrix(0.05,0,0,0.05,0,0)" xlink:href="#ca"/><use transform="matrix(0.05,0,0,0.05,14,0)" xlink:href="#au"/><use transform="matrix(0.05,0,0,0.05,26.950000000000003,0)" xlink:href="#ak"/><use transform="matrix(0.05,0,0,0.05,38.95,0)" xlink:href="#aB"/><use transform="matrix(0.05,0,0,0.05,51.900000000000006,0)" xlink:href="#am"/><use transform="matrix(0.05,0,0,0.05,64.85000000000001,0)" xlink:href="#av"/></g><path fill="#fff" d="M186 0v-106H76V0H24v-248h52v99h110v-99h50V0h-50" id="cb"/><g id="aj"><use transform="matrix(0.05,0,0,0.05,0,0)" xlink:href="#aw"/><use transform="matrix(0.05,0,0,0.05,10.950000000000001,0)" xlink:href="#ap"/><use transform="matrix(0.05,0,0,0.05,15.950000000000001,0)" xlink:href="#ar"/><use transform="matrix(0.05,0,0,0.05,28.900000000000002,0)" xlink:href="#cb"/><use transform="matrix(0.05,0,0,0.05,41.85,0)" xlink:href="#av"/></g></defs></g></svg>